<svg width="117" height="148" viewBox="0 0 117 148" fill="none" xmlns="http://www.w3.org/2000/svg">
<path d="M8.61816 127.676C8.61816 120.936 8.42448 113.614 8.03711 105.712C7.64974 97.8096 7.14616 89.8298 6.52637 81.7725C5.98405 73.6377 5.36426 65.6966 4.66699 57.9492C4.0472 50.2018 3.42741 43.113 2.80762 36.6826C2.2653 30.2523 1.80046 24.7129 1.41309 20.0645C1.02572 15.416 0.832031 12.1621 0.832031 10.3027C0.832031 7.20378 1.99414 4.84082 4.31836 3.21387C6.64258 1.58691 10.0127 0.773438 14.4287 0.773438C16.3656 0.773438 17.9925 0.967122 19.3096 1.35449C20.7041 1.74186 21.8275 2.40039 22.6797 3.33008C23.5319 4.25977 24.1904 5.49935 24.6553 7.04883C25.1976 8.52083 25.585 10.3802 25.8174 12.627C26.1273 15.7259 26.3984 19.0573 26.6309 22.6211C26.8633 26.1074 27.0957 30.0973 27.3281 34.5908C27.638 39.0843 27.9479 44.1589 28.2578 49.8145C28.5677 55.4701 28.9551 61.9779 29.4199 69.3379C29.4199 70.4225 29.6136 71.1973 30.001 71.6621C30.3883 72.127 30.8145 72.3594 31.2793 72.3594C32.1315 72.3594 32.9062 71.6621 33.6035 70.2676C40.1888 56.8646 47.084 46.638 54.2891 39.5879C61.4941 32.4603 68.5055 28.8965 75.3232 28.8965C79.3519 28.8965 82.5283 30.0973 84.8525 32.499C87.1768 34.9007 88.3389 38.1159 88.3389 42.1445C88.3389 46.4831 87.3704 50.5117 85.4336 54.2305C83.5742 57.8717 81.2113 61.3193 78.3447 64.5732C75.5557 67.8271 72.4954 70.8874 69.1641 73.7539C65.9102 76.6204 62.8499 79.4095 59.9834 82.1211C57.1943 84.8327 54.8314 87.5055 52.8945 90.1396C51.0352 92.6963 50.1055 95.2917 50.1055 97.9258C50.1055 100.327 51.5 102.807 54.2891 105.363C57.1556 107.842 61.2617 110.322 66.6074 112.801C71.9531 115.202 78.4997 117.565 86.2471 119.89C93.9945 122.136 102.788 124.306 112.627 126.397C114.176 126.785 115.261 127.405 115.881 128.257C116.578 129.109 116.927 130.232 116.927 131.627C116.927 133.331 116.539 135.075 115.765 136.856C114.99 138.716 114.021 140.382 112.859 141.854C111.697 143.403 110.38 144.643 108.908 145.572C107.514 146.579 106.158 147.083 104.841 147.083C102.207 147.083 99.069 146.734 95.4277 146.037C91.7865 145.34 87.8353 144.371 83.5742 143.132C79.3906 141.97 75.0521 140.575 70.5586 138.948C66.0651 137.399 61.6878 135.694 57.4268 133.835C53.2432 132.053 49.2533 130.194 45.457 128.257C41.7383 126.243 38.5231 124.267 35.8115 122.33C34.9593 121.865 34.262 121.478 33.7197 121.168C33.2549 120.858 32.8288 120.703 32.4414 120.703C31.9766 120.703 31.7054 120.897 31.6279 121.284C31.5505 121.594 31.5117 122.291 31.5117 123.376C31.5117 126.088 31.2793 128.296 30.8145 130C30.4271 131.704 29.7298 133.021 28.7227 133.951C27.7155 134.958 26.321 135.656 24.5391 136.043C22.7572 136.43 20.5492 136.624 17.915 136.624C14.4287 136.624 11.9883 135.965 10.5938 134.648C9.27669 133.331 8.61816 131.007 8.61816 127.676Z" fill="white"/>
</svg>
