<svg width="494" height="377" viewBox="0 0 494 377" fill="none" xmlns="http://www.w3.org/2000/svg">
<path d="M293.94 208.793C293.538 197.398 303.833 172.357 348.231 163.349M348.231 163.349C364.72 158.523 376.631 144.27 389.5 112.5C374.554 100.802 386.5 86.5 400 92C404.5 71.5 428.5 58 447.259 69.6468C456 78.5 456 86 453.415 96.5913C445 124 411.571 190.238 377.589 218.042M348.231 163.349C347.293 175.012 351.851 202.278 377.589 218.042M377.589 218.042C365.122 228.901 333.11 262.44 328.928 277.562M377.589 218.042C361.636 234.129 320.08 274.344 338.982 312.147" stroke="#040000" stroke-width="9" stroke-linecap="round"/>
<path d="M240.052 134.796C240.454 133.992 250.508 119.514 268.202 130.775" stroke="#040000" stroke-width="6" stroke-linecap="round"/>
<path d="M205.466 175.414C217.665 184.932 246.084 197.532 267.634 163.923" stroke="#040000" stroke-width="6" stroke-linecap="round"/>
<path d="M252.92 159.328C258.148 159.462 270.857 161.58 279.865 168.979" stroke="#040000" stroke-width="6" stroke-linecap="round"/>
<path d="M198.63 135.6C203.724 131.713 216.003 126.914 224.368 138.818C215.118 144.046 202.249 156.513 227.987 156.513" stroke="#040000" stroke-width="6" stroke-linecap="round"/>
<path d="M283.484 120.319C286.299 92.9719 246.365 94.8791 232.41 97.3956C224.879 98.898 205.546 104.634 220.346 94.9827C235.145 85.3309 269.141 82.918 278.256 84.9288C279.597 77.69 293.94 68.4403 312.037 75.6792C341.995 87.6623 329.33 109.058 324.906 114.688C322.333 110.184 317.399 106.913 315.255 105.841C331.984 140.909 318.472 154.77 309.624 157.317C311.501 148.738 316.461 131.177 305.603 130.372C295.504 129.624 295.951 166.164 295.951 167.371C289.114 158.121 282.68 153.295 283.484 120.319Z" fill="#040000" stroke="#040000"/>
<path d="M289.115 186.674C262.975 203.163 219.944 234.531 181.739 194.717C143.535 154.904 202.249 101.417 232.009 94.1784" stroke="#040000" stroke-width="8" stroke-linecap="round"/>
<path d="M142.381 343.424C201.124 402.216 312.105 368.358 360.766 343.424L328.124 269.921C277.452 263.888 284.477 226.43 282.466 192.247L262.358 204.312C261.956 210.88 259.677 231.314 259.355 240.965C230.4 237.426 190.988 238.15 174.902 238.955C174.259 235.416 186.967 217.64 193.401 209.195L182.141 200.348C130.343 244.102 135.812 328.545 142.381 343.424Z" fill="#040000"/>
<path d="M138.896 281.928C123.48 273.885 91.7636 245.814 88.2246 197.877C72.1383 192.086 58.465 177.233 53.6392 170.531" stroke="#040000" stroke-width="9" stroke-linecap="round"/>
<path d="M161.015 229.647C142.382 216.108 110.343 185.249 131.255 170.128" stroke="#040000" stroke-width="9" stroke-linecap="round"/>
<path d="M19.8582 152.433H153.374L140.907 167.715H19.8582L9 152.433H19.8582ZM19.8582 152.433C19.188 138.894 23.9602 114.39 48.4113 124.685C64.4976 113.022 85.8118 108.598 105.517 127.098C118.789 121.467 144.124 117.848 143.32 147.205" stroke="#040000" stroke-width="9" stroke-linecap="round"/>
<g clip-path="url(#clip0_339_6135)">
<path d="M117.721 95.5435C117.191 95.5435 116.669 95.4202 116.195 95.1833C115.721 94.9464 115.309 94.6024 114.991 94.1786L112.21 90.4729C109.576 86.96 107.725 82.9231 106.783 78.6343C105.841 74.3455 105.83 69.9046 106.75 65.6111L111.777 42.1484C112.492 38.8088 112.483 35.3546 111.75 32.0188C111.018 28.683 109.578 25.5431 107.528 22.811L104.751 19.1087C104.482 18.7502 104.286 18.3423 104.175 17.9082C104.064 17.4741 104.039 17.0224 104.103 16.5788C104.166 16.1352 104.316 15.7084 104.544 15.3228C104.773 14.9372 105.075 14.6004 105.433 14.3315C105.792 14.0627 106.2 13.8671 106.634 13.7559C107.068 13.6446 107.52 13.62 107.963 13.6834C108.407 13.7468 108.834 13.8969 109.219 14.1252C109.605 14.3535 109.942 14.6555 110.21 15.014L112.991 18.7197C115.625 22.2322 117.476 26.2685 118.418 30.5567C119.359 34.8449 119.371 39.2851 118.451 43.5781L113.421 67.0408C112.706 70.3804 112.715 73.8346 113.448 77.1704C114.181 80.5062 115.62 83.646 117.67 86.3782L120.447 90.0839C120.827 90.5906 121.059 91.1931 121.116 91.824C121.173 92.4548 121.053 93.089 120.77 93.6557C120.487 94.2224 120.052 94.6991 119.514 95.0325C118.975 95.3659 118.354 95.5429 117.721 95.5435ZM100.659 95.5435C100.13 95.5435 99.6073 95.4202 99.1335 95.1833C98.6597 94.9464 98.2475 94.6024 97.9297 94.1786L95.1487 90.4729C92.5142 86.96 90.6636 82.9231 89.7218 78.6343C88.78 74.3455 88.7688 69.9046 89.689 65.6111L94.7153 42.1484C95.4309 38.8088 95.4219 35.3546 94.689 32.0188C93.9562 28.683 92.5165 25.5431 90.467 22.811L87.6895 19.1087C87.4206 18.7502 87.225 18.3423 87.1138 17.9082C87.0026 17.4741 86.9779 17.0224 87.0413 16.5788C87.1047 16.1352 87.2548 15.7084 87.4831 15.3228C87.7114 14.9372 88.0134 14.6004 88.3719 14.3315C88.7304 14.0627 89.1383 13.8671 89.5724 13.7559C90.0065 13.6446 90.4582 13.62 90.9018 13.6834C91.3454 13.7468 91.7722 13.8969 92.1578 14.1252C92.5434 14.3535 92.8802 14.6555 93.1491 15.014L95.9301 18.7197C98.5641 22.2322 100.414 26.2685 101.356 30.5567C102.298 34.8449 102.309 39.2851 101.39 43.5781L96.36 67.0408C95.6445 70.3804 95.6535 73.8346 96.3863 77.1704C97.1192 80.5062 98.5589 83.646 100.608 86.3782L103.386 90.0839C103.766 90.5906 103.997 91.1931 104.054 91.824C104.112 92.4548 103.992 93.089 103.709 93.6557C103.426 94.2224 102.991 94.6991 102.452 95.0325C101.914 95.3659 101.293 95.5429 100.659 95.5435ZM83.5982 95.5435C83.0684 95.5435 82.546 95.4202 82.0721 95.1833C81.5983 94.9464 81.1862 94.6024 80.8683 94.1786L78.0873 90.4729C75.4528 86.96 73.6023 82.9231 72.6605 78.6343C71.7186 74.3455 71.7075 69.9046 72.6277 65.6111L77.654 42.1484C78.3695 38.8088 78.3606 35.3546 77.6277 32.0188C76.8949 28.683 75.4552 25.5431 73.4057 22.811L70.6281 19.1087C70.3593 18.7502 70.1636 18.3423 70.0524 17.9082C69.9412 17.4741 69.9166 17.0224 69.98 16.5788C70.0433 16.1352 70.1935 15.7084 70.4218 15.3228C70.6501 14.9372 70.9521 14.6004 71.3106 14.3315C71.6691 14.0627 72.077 13.8671 72.5111 13.7559C72.9452 13.6446 73.3969 13.62 73.8405 13.6834C74.2841 13.7468 74.7109 13.8969 75.0965 14.1252C75.4821 14.3535 75.8189 14.6555 76.0878 15.014L78.8653 18.7197C81.5 22.2319 83.3509 26.2682 84.2933 30.5563C85.2357 34.8445 85.2476 39.2849 84.3284 43.5781L79.2987 67.0408C78.5832 70.3804 78.5921 73.8346 79.325 77.1704C80.0578 80.5062 81.4975 83.646 83.547 86.3782L86.3246 90.0839C86.7046 90.5906 86.9361 91.1931 86.9931 91.824C87.0502 92.4548 86.9305 93.089 86.6475 93.6557C86.3645 94.2224 85.9294 94.6991 85.3909 95.0325C84.8523 95.3659 84.2316 95.5429 83.5982 95.5435ZM66.5368 95.5435C66.0071 95.5435 65.4846 95.4202 65.0108 95.1833C64.537 94.9464 64.1248 94.6024 63.807 94.1786L61.026 90.4729C58.3915 86.96 56.5409 82.9231 55.5991 78.6343C54.6573 74.3455 54.6461 69.9046 55.5664 65.6111L60.5926 42.1484C61.3077 38.8093 61.2985 35.3558 60.5656 32.0206C59.8328 28.6854 58.3933 25.5461 56.3444 22.8144L53.5668 19.1087C53.2979 18.7502 53.1023 18.3423 52.9911 17.9082C52.8799 17.4741 52.8553 17.0224 52.9186 16.5788C52.982 16.1352 53.1321 15.7084 53.3604 15.3228C53.5887 14.9372 53.8908 14.6004 54.2492 14.3315C54.6077 14.0627 55.0157 13.8671 55.4497 13.7559C55.8838 13.6446 56.3356 13.62 56.7792 13.6834C57.2228 13.7468 57.6495 13.8969 58.0351 14.1252C58.4207 14.3535 58.7576 14.6555 59.0264 15.014L61.8074 18.7197C64.4414 22.2322 66.2917 26.2685 67.2335 30.5567C68.1754 34.8449 68.1868 39.2851 67.267 43.5781L62.2374 67.0408C61.5218 70.3804 61.5308 73.8346 62.2636 77.1704C62.9965 80.5062 64.4362 83.646 66.4856 86.3782L69.2632 90.0839C69.6433 90.5906 69.8748 91.1931 69.9318 91.824C69.9889 92.4548 69.8692 93.089 69.5862 93.6557C69.3032 94.2224 68.8681 94.6991 68.3295 95.0325C67.791 95.3659 67.1702 95.5429 66.5368 95.5435ZM49.4755 95.5435C48.9452 95.544 48.422 95.421 47.9476 95.184C47.4731 94.9471 47.0604 94.6029 46.7423 94.1786L43.9647 90.4729C41.3302 86.96 39.4796 82.9231 38.5378 78.6343C37.596 74.3455 37.5848 69.9046 38.505 65.6111L43.5313 42.1484C44.2463 38.8093 44.2371 35.3558 43.5043 32.0206C42.7714 28.6854 41.332 25.5461 39.283 22.8144L36.5055 19.1087C36.2366 18.7502 36.041 18.3423 35.9298 17.9082C35.8185 17.4741 35.7939 17.0224 35.8573 16.5788C35.9853 15.6829 36.4639 14.8745 37.1879 14.3315C37.9119 13.7886 38.8219 13.5554 39.7178 13.6834C40.6137 13.8114 41.4221 14.29 41.9651 15.014L44.7461 18.7197C47.3801 22.2322 49.2304 26.2685 50.1722 30.5567C51.114 34.8449 51.1254 39.2851 50.2057 43.5781L45.176 67.0408C44.4605 70.3804 44.4694 73.8346 45.2023 77.1704C45.9352 80.5062 47.3749 83.646 49.4243 86.3782L52.2019 90.0839C52.5819 90.5906 52.8134 91.1931 52.8705 91.824C52.9275 92.4548 52.8078 93.089 52.5249 93.6557C52.2419 94.2224 51.8067 94.6991 51.2682 95.0325C50.7296 95.3659 50.1089 95.5429 49.4755 95.5435Z" fill="#040000"/>
</g>
<path d="M462 57C467.333 60 473 65.8 473 79" stroke="#040000" stroke-width="9" stroke-linecap="round"/>
<path d="M465 39C470.333 42 488 49.5 489 75" stroke="#040000" stroke-width="9" stroke-linecap="round"/>
<defs>
<clipPath id="clip0_339_6135">
<rect width="109.193" height="109.193" fill="white" transform="translate(25.5862 1.52588e-05)"/>
</clipPath>
</defs>
</svg>
